<?xml version="1.0" encoding="utf-8"?>
<!-- Generator: Adobe Illustrator 26.2.1, SVG Export Plug-In . SVG Version: 6.00 Build 0)  -->
<svg version="1.1" id="图层_1" xmlns="http://www.w3.org/2000/svg" xmlns:xlink="http://www.w3.org/1999/xlink" x="0px" y="0px"
	 viewBox="0 0 429.4 429.4" style="enable-background:new 0 0 429.4 429.4;" xml:space="preserve">
<style type="text/css">
	.st0{fill:#FFFFFF;}
	.st1{fill:#FF592C;}
	.st2{fill:#E2C497;}
</style>
<g>
	<path class="st0" d="M214.9,136.7c0-0.4-0.4-0.4-0.4,0l-3.3,210.4c0,0.4,0.1,0.7,0.3,1l2.8,3.9c0.2,0.2,0.5,0.2,0.6,0l2.9-3.9
		c0.2-0.3,0.3-0.6,0.3-1L214.9,136.7z"/>
	<path class="st1" d="M261.3,169.3l-36.8,69.9c-0.2,0.5-0.9,0.3-0.9-0.2V96.6c0-0.1,0.2-0.2,0.2-0.1l37.5,71.3
		C261.5,168.3,261.5,168.9,261.3,169.3z"/>
	<path class="st2" d="M168.2,169.3l36.8,69.9c0.2,0.5,0.9,0.3,0.9-0.2V96.6c0-0.1-0.2-0.2-0.2-0.1l-37.5,71.3
		C167.9,168.3,167.9,168.9,168.2,169.3z"/>
	<ellipse class="st0" cx="214.7" cy="83.9" rx="6.5" ry="6.7"/>
	<path class="st0" d="M226.1,256.3V338c0,0.6,0.8,0.9,1.2,0.5l73.9-77.3c0.8-0.9,1-2.1,0.5-3.2l-37-75c-0.2-0.3-0.6-0.3-0.8,0
		l-37.1,70.5C226.4,254.3,226.1,255.3,226.1,256.3z"/>
	<path class="st0" d="M203.3,256.3V338c0,0.6-0.8,0.9-1.2,0.5l-73.9-77.3c-0.8-0.9-1-2.1-0.5-3.2l37-75c0.2-0.3,0.6-0.3,0.8,0
		l37.1,70.5C203.1,254.3,203.3,255.3,203.3,256.3z"/>
</g>
</svg>
